<?xml version="1.0" encoding="utf-8"?>
<!-- Generator: Adobe Illustrator 23.0.4, SVG Export Plug-In . SVG Version: 6.00 Build 0)  -->
<svg version="1.1" id="MobileSlash" xmlns="http://www.w3.org/2000/svg" xmlns:xlink="http://www.w3.org/1999/xlink" x="0px"
	 y="0px" viewBox="0 0 324 583" style="enable-background:new 0 0 324 583;" xml:space="preserve">
<style type="text/css">
	.st0{fill:#FFCC04;}
	.st1{fill:#FFFFFF;}
	.st2{fill:#1D1D1B;}
</style>
<path class="st0" d="M193.4,522.3l10.1,27.7c2.7-6.6,6.3-12.6,10.8-17.9L193.4,522.3z"/>
<polygon class="st1" points="161.3,434.1 168.5,453.8 181.1,426.9 "/>
<path class="st0" d="M301.2,518.7l-11.6-31.8l-10.6,22.8C287,511.4,294.5,514.5,301.2,518.7"/>
<polygon class="st1" points="264.8,419.1 257.5,399.1 237.5,406.4 "/>
<path class="st0" d="M78.8,89.7c4.3,0,8.4-0.9,12.1-2.4H66.6C70.4,88.9,74.5,89.7,78.8,89.7"/>
<path class="st0" d="M69.1,33.8l-2.2-4.3c-1.2,0.5-2.4,1.1-3.5,1.7l2.2,4.3L69.1,33.8z"/>
<path class="st0" d="M60.4,41.5l-5.2-3.6c-0.9,1-1.7,2-2.4,3.1l5.3,3.7L60.4,41.5z"/>
<path class="st0" d="M91.7,35.6l2.3-4.4c-1.1-0.6-2.3-1.2-3.5-1.7l-2.2,4.3L91.7,35.6z"/>
<path class="st1" d="M56.8,80.7c2.7,2.7,6,4.9,9.5,6.5l12.4-23l12.4,23c3.6-1.5,6.8-3.7,9.6-6.4L78.7,40L56.8,80.7z"/>
<path class="st0" d="M96.9,41.5l2.2,3.2l5.4-3.8c-0.7-1.1-1.5-2.1-2.4-3.1L96.9,41.5z"/>
<path class="st0" d="M80.6,31.3v-4c-0.6,0-1.2-0.1-1.9-0.1c-0.7,0-1.4,0-2,0.1v4H80.6z"/>
<path class="st0" d="M110,58.5c0,8.7-3.6,16.6-9.4,22.3l9.7,18H47.1l9.7-18.1c-5.7-5.7-9.3-13.5-9.3-22.2c0-6.5,2-12.5,5.4-17.5
	l-5.9-4.2l2.2-3.2l6.1,4.3c2.3-2.6,5.1-4.9,8.1-6.6l-4-7.9l3.5-1.8l4.1,8c3.1-1.3,6.4-2,9.8-2.3v-9.7h3.9v9.7c3.5,0.2,6.8,1,9.9,2.2
	l4-7.9l3.5,1.8l-4,7.8c3.1,1.7,5.9,4,8.2,6.6l6-4.2l2.2,3.2l-5.8,4.1C108,45.9,110,52,110,58.5 M78.8,7C50.3,7,27.3,30,27.3,58.5
	s23,51.5,51.5,51.5s51.5-23,51.5-51.5S107.2,7,78.8,7"/>
<path class="st0" d="M91.1,87.3L91.1,87.3c-0.1-0.1-0.2,0-0.2,0H91.1z"/>
<path class="st0" d="M66.6,87.3c-0.1,0-0.2-0.1-0.3-0.1l-0.1,0.1H66.6z"/>
<path class="st1" d="M90.5,29.5c1.2,0.5,2.4,1.1,3.5,1.7l4-7.8l-3.5-1.8L90.5,29.5z"/>
<path class="st1" d="M76.7,27.3c0.7,0,1.3-0.1,2-0.1c0.6,0,1.3,0,1.9,0.1v-9.7h-3.9V27.3z"/>
<path class="st1" d="M102.2,37.8c0.9,1,1.7,2,2.4,3.1l5.8-4.1l-2.2-3.2L102.2,37.8z"/>
<path class="st1" d="M62.8,21.6l-3.5,1.8l4,7.9c1.1-0.6,2.3-1.2,3.5-1.7L62.8,21.6z"/>
<path class="st1" d="M55.3,37.9l-6.1-4.3l-2.2,3.2l5.9,4.2C53.6,39.9,54.4,38.9,55.3,37.9"/>
<path class="st1" d="M100.6,80.8c-2.7,2.7-6,4.9-9.6,6.4l0,0.1h-0.2c-3.7,1.6-7.8,2.4-12.1,2.4c-4.3,0-8.4-0.9-12.1-2.4h-0.4
	l0.1-0.1c-3.6-1.6-6.8-3.8-9.5-6.5l-9.7,18.1h63.3L100.6,80.8z"/>
<polygon class="st0" points="153.8,113.8 101.2,106.1 118.4,153.5 "/>
<polygon class="st0" points="177.8,179.6 125.1,172 142.4,219.4 "/>
<polygon class="st0" points="61.3,157.9 78.6,205.3 114,165.6 "/>
<polygon class="st1" points="115,117.3 121.8,136 135.7,120.4 "/>
<polygon class="st1" points="159.7,186.2 139,183.2 145.8,201.8 "/>
<polygon class="st1" points="75.2,169.1 82,187.8 95.9,172.2 "/>
<polygon class="st1" points="157.2,123 121.8,162.7 174.5,170.4 "/>
<polygon class="st1" points="58,148.6 110.7,156.3 93.4,108.9 "/>
<polygon class="st1" points="117.4,174.8 82,214.5 134.6,222.2 "/>
<polygon class="st0" points="139.9,156.1 160.6,159.1 153.8,140.5 "/>
<polygon class="st0" points="76.1,142 96.8,145.1 90,126.4 "/>
<polygon class="st0" points="114,192.3 100.1,207.9 120.8,210.9 "/>
<path class="st1" d="M144.8,347c-5.6,12-6.6,26.1-1.7,39.5c9.8,26.8,39.4,40.6,66.2,30.8c13.4-4.9,23.5-14.7,29.1-26.7l-68.6,25
	L144.8,347z"/>
<path class="st1" d="M173.9,320.3c-13.4,4.9-23.5,14.7-29.1,26.6l68.5-24.9C201.3,316.5,187.2,315.5,173.9,320.3"/>
<path class="st1" d="M240,351.2c-4.9-13.4-14.7-23.5-26.6-29.1l24.9,68.5C243.9,378.6,244.9,364.5,240,351.2"/>
<path class="st2" d="M144.7,347L144.7,347C144.8,347,144.8,347,144.7,347L144.7,347z"/>
<path class="st2" d="M238.3,390.6L238.3,390.6C238.3,390.6,238.3,390.6,238.3,390.6L238.3,390.6z"/>
<path class="st2" d="M213.3,322c0,0,0.1,0,0.1,0L213.3,322L213.3,322z"/>
<path class="st0" d="M162.1,379.5c5.9,16.3,23.9,24.6,40.2,18.7c16.3-5.9,24.6-23.9,18.7-40.2c-5.9-16.3-23.9-24.6-40.2-18.7
	C164.6,345.3,156.2,363.3,162.1,379.5"/>
<rect x="170.1" y="347.3" transform="matrix(0.9397 -0.342 0.342 0.9397 -114.5883 87.7567)" class="st1" width="43" height="43"/>
<rect x="209" y="510.7" transform="matrix(0.1236 -0.9923 0.9923 0.1236 -317.0523 668.5668)" class="st1" width="22" height="6.3"/>
<rect x="240.9" y="501.1" transform="matrix(0.9397 -0.342 0.342 0.9397 -160.4269 114.3517)" class="st1" width="6.3" height="22"/>
<rect x="187.2" y="500.5" transform="matrix(0.5746 -0.8184 0.8184 0.5746 -327.8599 376.4977)" class="st1" width="22" height="6.3"/>
<rect x="260.4" y="486.9" transform="matrix(0.6807 -0.7326 0.7326 0.6807 -280.6022 352.0844)" class="st1" width="6.3" height="22"/>
<rect x="270.6" y="465.2" transform="matrix(0.2576 -0.9663 0.9663 0.2576 -256.9478 617.9961)" class="st1" width="6.3" height="22"/>
<rect x="226.9" y="424.3" transform="matrix(0.1238 -0.9923 0.9923 0.1238 -215.6976 610.5854)" class="st0" width="22" height="6.3"/>
<rect x="210.7" y="418.1" transform="matrix(0.9397 -0.342 0.342 0.9397 -133.8835 99.0271)" class="st0" width="6.3" height="22"/>
<rect x="248.6" y="434.4" transform="matrix(0.5746 -0.8184 0.8184 0.5746 -247.6697 398.5936)" class="st0" width="22" height="6.3"/>
<rect x="191.2" y="432.3" transform="matrix(0.6807 -0.7326 0.7326 0.6807 -262.707 283.9209)" class="st0" width="6.3" height="22"/>
<rect x="181.1" y="454" transform="matrix(0.2576 -0.9663 0.9663 0.2576 -312.5641 523.2185)" class="st0" width="6.3" height="22"/>
<rect x="205.5" y="447.2" transform="matrix(0.4226 -0.9063 0.9063 0.4226 -294.328 479.2036)" class="st0" width="46.8" height="46.8"/>
<polygon class="st0" points="247.2,463.9 210.6,477.3 222.3,452.3 "/>
<path class="st1" d="M247.2,463.9l-11.6,25l-25-11.6l11.6-25L247.2,463.9z M260.1,459.3l-42.4-19.8l-19.8,42.4L260.1,459.3z"/>
<polygon class="st1" points="247.2,463.9 235.6,488.9 210.6,477.3 "/>
<rect x="159.5" y="210.2" transform="matrix(0.9397 -0.342 0.342 0.9397 -67.1367 74.1593)" class="st1" width="34.4" height="34.4"/>
<rect x="138.9" y="254.5" transform="matrix(0.9397 -0.342 0.342 0.9397 -83.521 69.7691)" class="st1" width="34.4" height="34.4"/>
<rect x="183.1" y="275.1" transform="matrix(0.9397 -0.342 0.342 0.9397 -87.9112 86.1535)" class="st1" width="34.4" height="34.4"/>
<rect x="95.1" y="233.7" transform="matrix(0.9397 -0.342 0.342 0.9397 -79.0352 53.5507)" class="st1" width="34.4" height="34.4"/>
<path class="st1" d="M192.1,252.3l4.1,11.2l-11.2,4.1l-4.1-11.2L192.1,252.3z M175.5,253.9l6.9,19l19-6.9l-6.9-19L175.5,253.9z"/>
<path class="st1" d="M147.8,231.6l4.1,11.2l-11.2,4.1l-4.1-11.2L147.8,231.6z M131.3,233.2l6.9,19l19-6.9l-6.9-19L131.3,233.2z"/>
<path class="st1" d="M164.3,311.8l-4.1-11.2l11.2-4.1l4.1,11.2L164.3,311.8z M173.9,291.2l-19,6.9l6.9,19l19-6.9L173.9,291.2z"/>
<path class="st1" d="M127.7,275.7l4.1,11.2l-11.2,4.1l-4.1-11.2L127.7,275.7z M111.2,277.3l6.9,19l19-6.9l-6.9-19L111.2,277.3z"/>
<rect x="118.7" y="298.6" transform="matrix(0.9397 -0.342 0.342 0.9397 -99.8096 65.5449)" class="st1" width="34.4" height="34.4"/>
<rect x="166.6" y="217.3" transform="matrix(0.9397 -0.342 0.342 0.9397 -67.1335 74.1541)" class="st0" width="20.3" height="20.3"/>
<rect x="145.9" y="261.6" transform="matrix(0.9397 -0.342 0.342 0.9397 -83.5168 69.764)" class="st0" width="20.3" height="20.3"/>
<rect x="190.2" y="282.2" transform="matrix(0.9397 -0.342 0.342 0.9397 -87.9014 86.1398)" class="st0" width="20.3" height="20.3"/>
<rect x="102.2" y="240.8" transform="matrix(0.9397 -0.342 0.342 0.9397 -79.0309 53.5466)" class="st0" width="20.3" height="20.3"/>
<rect x="125.8" y="305.7" transform="matrix(0.9397 -0.342 0.342 0.9397 -99.8043 65.5398)" class="st0" width="20.3" height="20.3"/>
<path class="st1" d="M212.7,575h20.7c0-17.6,14.3-31.9,31.9-31.9c17.6,0,31.9,14.3,31.9,31.9h20.7c0-29.1-23.6-52.6-52.6-52.6
	S212.7,546,212.7,575"/>
<path class="st0" d="M246.2,575h7.5c0-6.4,5.2-11.6,11.6-11.6c6.4,0,11.6,5.2,11.6,11.6h7.5c0-10.6-8.6-19.2-19.2-19.2
	C254.7,555.9,246.2,564.4,246.2,575"/>
<path class="st1" d="M45.1,7H6.2l13,35.9C23.1,27.9,32.5,15.2,45.1,7"/>
<path class="st1" d="M43.1,108.6l12,32.9l19.3-21.7C62.8,119,52,115,43.1,108.6"/>
<path class="st1" d="M150.6,105.9l-12-32.9c-2.6,10.9-8.2,20.7-15.8,28.5L150.6,105.9z"/>
</svg>
